<svg xmlns="http://www.w3.org/2000/svg" viewBox="0 0 100 150">
  <defs>
    <linearGradient id="trunkGradient" x1="0%" y1="0%" x2="100%" y2="0%">
      <stop offset="0%" style="stop-color:#8B4513;stop-opacity:1" />
      <stop offset="50%" style="stop-color:#A0522D;stop-opacity:1" />
      <stop offset="100%" style="stop-color:#8B4513;stop-opacity:1" />
    </linearGradient>
    <linearGradient id="leavesGradient" x1="0%" y1="0%" x2="100%" y2="100%">
      <stop offset="0%" style="stop-color:#32CD32;stop-opacity:1" />
      <stop offset="100%" style="stop-color:#228B22;stop-opacity:1" />
    </linearGradient>
    <filter id="shadow" x="-20%" y="-20%" width="140%" height="140%">
      <feDropShadow dx="2" dy="2" stdDeviation="1" flood-opacity="0.3" />
    </filter>
  </defs>
  
  <!-- Trunk -->
  <rect x="45" y="75" width="10" height="60" fill="url(#trunkGradient)" rx="2" ry="2" filter="url(#shadow)" />
  
  <!-- Branches -->
  <path d="M48,80 L30,65" stroke="#8B4513" stroke-width="3" stroke-linecap="round" />
  <path d="M52,90 L70,78" stroke="#8B4513" stroke-width="3" stroke-linecap="round" />
  <path d="M48,100 L25,92" stroke="#8B4513" stroke-width="3" stroke-linecap="round" />
  
  <!-- Leaves Level 1 (small) -->
  <ellipse cx="50" cy="60" rx="20" ry="15" fill="url(#leavesGradient)" filter="url(#shadow)" />
  
  <!-- Leaves Level 2 (medium) -->
  <ellipse cx="50" cy="45" rx="25" ry="20" fill="url(#leavesGradient)" filter="url(#shadow)" />
  
  <!-- Leaves Level 3 (large) -->
  <ellipse cx="50" cy="30" rx="30" ry="25" fill="url(#leavesGradient)" filter="url(#shadow)" />
  
  <!-- Fruits/Flowers -->
  <circle cx="35" cy="35" r="3" fill="#FF6347" />
  <circle cx="65" cy="40" r="3" fill="#FF6347" />
  <circle cx="50" cy="25" r="3" fill="#FF6347" />
  <circle cx="40" cy="50" r="3" fill="#FF6347" />
  <circle cx="60" cy="55" r="3" fill="#FF6347" />
  
  <!-- Ground/Soil -->
  <ellipse cx="50" cy="135" rx="30" ry="10" fill="#8B4513" opacity="0.3" />
</svg> 